<svg width="32" height="20" viewBox="0 0 32 20" fill="none" xmlns="http://www.w3.org/2000/svg">
<path fill-rule="evenodd" clip-rule="evenodd" d="M10 20H21.6326C24.2848 20 26.8283 18.9464 28.7037 17.0711C30.579 15.1957 31.6326 12.6522 31.6326 10C31.6326 7.34784 30.579 4.8043 28.7037 2.92893C26.8283 1.05357 24.2848 0 21.6326 0H10C7.34784 0 4.8043 1.05357 2.92893 2.92893C1.05357 4.8043 0 7.34784 0 10C0 12.6522 1.05357 15.1957 2.92893 17.0711C4.8043 18.9464 7.34784 20 10 20ZM10 17.7778C7.93721 17.7778 5.9589 16.9583 4.50028 15.4997C3.04166 14.0411 2.22222 12.0628 2.22222 10C2.22222 7.93721 3.04166 5.9589 4.50028 4.50028C5.9589 3.04166 7.93721 2.22222 10 2.22222H21.6326C23.6954 2.22222 25.6737 3.04166 27.1323 4.50028C28.5909 5.9589 29.4104 7.93721 29.4104 10C29.4104 12.0628 28.5909 14.0411 27.1323 15.4997C25.6737 16.9583 23.6954 17.7778 21.6326 17.7778H10Z" fill="#6B3D3D"/>
</svg>
