<svg width="11" height="11" viewBox="0 0 11 11" fill="none" xmlns="http://www.w3.org/2000/svg">
<path d="M5.47532 11.0014C4.70608 10.9987 3.94596 10.8346 3.24418 10.5195C2.54241 10.2045 1.9146 9.74557 1.40141 9.17252C0.888219 8.59948 0.501077 7.92506 0.265042 7.19292C0.0290067 6.46077 -0.0506607 5.68722 0.0311978 4.92234C0.172233 3.57506 0.806012 2.32736 1.81083 1.41885C2.81565 0.510329 4.12068 0.00503778 5.47532 0C6.24457 0.00267337 7.00468 0.166847 7.70646 0.481892C8.40824 0.796938 9.03604 1.25583 9.54923 1.82888C10.0624 2.40192 10.4496 3.07634 10.6856 3.80849C10.9216 4.54063 11.0013 5.31418 10.9194 6.07906C10.7784 7.42635 10.1446 8.67404 9.13981 9.58256C8.13499 10.4911 6.82996 10.9964 5.47532 11.0014Z" fill="#6B3D3D"/>
</svg>
