<svg width="25" height="25" viewBox="0 0 25 25" fill="none" xmlns="http://www.w3.org/2000/svg">
<path d="M0.78125 23.0469H24.2188C24.426 23.0469 24.6247 22.9646 24.7712 22.8181C24.9177 22.6715 25 22.4728 25 22.2656V2.73438C25 2.52717 24.9177 2.32846 24.7712 2.18195C24.6247 2.03543 24.426 1.95313 24.2188 1.95312H0.78125C0.57405 1.95313 0.375336 2.03543 0.228823 2.18195C0.08231 2.32846 0 2.52717 0 2.73438L0 22.2656C0 22.4728 0.08231 22.6715 0.228823 22.8181C0.375336 22.9646 0.57405 23.0469 0.78125 23.0469ZM1.5625 21.4844V8.20312H23.4375V21.4844H1.5625ZM23.4375 3.51562V6.64062H1.5625V3.51562H23.4375Z" fill="#6B3D3D"/>
<path d="M3.90625 5.86035C4.00887 5.86045 4.11051 5.84032 4.20534 5.80109C4.30018 5.76187 4.38634 5.70432 4.45891 5.63176C4.53147 5.55919 4.58902 5.47303 4.62824 5.37819C4.66747 5.28336 4.6876 5.18173 4.6875 5.0791C4.6875 4.87598 4.60547 4.67285 4.45703 4.52832C4.16797 4.23535 3.64453 4.23535 3.35547 4.52832C3.20703 4.67285 3.125 4.87207 3.125 5.0791C3.125 5.28613 3.20703 5.48535 3.35547 5.63379C3.5 5.77832 3.70273 5.86035 3.90625 5.86035Z" fill="#6B3D3D"/>
<path d="M6.25 5.86035C6.45313 5.86035 6.65625 5.77832 6.80078 5.62988C6.94922 5.48535 7.03125 5.28613 7.03125 5.0791C7.03125 4.87207 6.94922 4.67285 6.80078 4.52832C6.51172 4.23535 5.98828 4.23535 5.69922 4.52832C5.55078 4.67285 5.46875 4.87207 5.46875 5.0791C5.46865 5.18173 5.48878 5.28336 5.52801 5.37819C5.56724 5.47303 5.62478 5.55919 5.69734 5.63176C5.76991 5.70432 5.85608 5.76187 5.95091 5.80109C6.04574 5.84032 6.14738 5.86045 6.25 5.86035Z" fill="#6B3D3D"/>
<path d="M8.59375 5.86084C8.69637 5.86095 8.79801 5.84081 8.89284 5.80158C8.98768 5.76236 9.07384 5.70482 9.14641 5.63225C9.21897 5.55968 9.27652 5.47352 9.31574 5.37869C9.35497 5.28385 9.3751 5.18222 9.375 5.07959C9.375 4.87256 9.29297 4.67334 9.14453 4.5249C8.85547 4.23584 8.33203 4.23584 8.04297 4.52881C7.89453 4.67334 7.8125 4.87647 7.8125 5.07959C7.8124 5.18222 7.83253 5.28385 7.87176 5.37869C7.91099 5.47352 7.96853 5.55968 8.04109 5.63225C8.11366 5.70482 8.19983 5.76236 8.29466 5.80158C8.38949 5.84081 8.49113 5.86095 8.59375 5.86084Z" fill="#6B3D3D"/>
<path d="M21.0938 9.76562H3.90625C3.69905 9.76562 3.50034 9.84794 3.35382 9.99445C3.20731 10.141 3.125 10.3397 3.125 10.5469C3.125 10.7541 3.20731 10.9528 3.35382 11.0993C3.50034 11.2458 3.69905 11.3281 3.90625 11.3281H21.0938C21.301 11.3281 21.4997 11.2458 21.6462 11.0993C21.7927 10.9528 21.875 10.7541 21.875 10.5469C21.875 10.3397 21.7927 10.141 21.6462 9.99445C21.4997 9.84794 21.301 9.76562 21.0938 9.76562Z" fill="#6B3D3D"/>
<path d="M21.0938 12.8906H3.90625C3.69905 12.8906 3.50034 12.9729 3.35382 13.1194C3.20731 13.266 3.125 13.4647 3.125 13.6719C3.125 13.8791 3.20731 14.0778 3.35382 14.2243C3.50034 14.3708 3.69905 14.4531 3.90625 14.4531H21.0938C21.301 14.4531 21.4997 14.3708 21.6462 14.2243C21.7927 14.0778 21.875 13.8791 21.875 13.6719C21.875 13.4647 21.7927 13.266 21.6462 13.1194C21.4997 12.9729 21.301 12.8906 21.0938 12.8906Z" fill="#6B3D3D"/>
<path d="M21.0938 16.0156H3.90625C3.69905 16.0156 3.50034 16.0979 3.35382 16.2444C3.20731 16.391 3.125 16.5897 3.125 16.7969C3.125 17.0041 3.20731 17.2028 3.35382 17.3493C3.50034 17.4958 3.69905 17.5781 3.90625 17.5781H21.0938C21.301 17.5781 21.4997 17.4958 21.6462 17.3493C21.7927 17.2028 21.875 17.0041 21.875 16.7969C21.875 16.5897 21.7927 16.391 21.6462 16.2444C21.4997 16.0979 21.301 16.0156 21.0938 16.0156Z" fill="#6B3D3D"/>
</svg>
