<svg width="27" height="33" viewBox="0 0 27 33" fill="none" xmlns="http://www.w3.org/2000/svg">
<path fill-rule="evenodd" clip-rule="evenodd" d="M6.52667 5.76293C6.52667 5.51701 6.52667 5.39325 6.45753 5.32186C6.38562 5.25046 6.28053 5.26633 6.07035 5.29806C4.52164 5.52494 3.44031 5.98981 2.61617 6.93699C0.995555 8.79488 0.995555 11.7872 0.995555 17.7701C0.995555 23.7531 0.995555 26.7454 2.61617 28.6033C4.23679 30.4612 6.84332 30.4628 12.0578 30.4628H14.8233C20.0378 30.4628 22.6457 30.4628 24.2649 28.6033C25.8842 26.7438 25.8856 23.7531 25.8856 17.7701C25.8856 11.7872 25.8856 8.79488 24.2649 6.93699C23.4408 5.98981 22.3595 5.52494 20.8094 5.29806C20.6006 5.26633 20.4955 5.25046 20.425 5.32186C20.3545 5.39325 20.3545 5.51701 20.3545 5.76293V9.04397C20.3544 9.67515 20.1359 10.2805 19.7469 10.7268C19.358 11.1731 18.8304 11.4238 18.2803 11.4238C17.7302 11.4238 17.2026 11.1731 16.8136 10.7268C16.4246 10.2805 16.2061 9.67515 16.2061 9.04397V5.5535C16.2061 5.32979 16.2061 5.21714 16.1453 5.14892C16.0844 5.0807 15.9876 5.07752 15.7927 5.07752H11.0898C10.8935 5.07752 10.7967 5.07753 10.7358 5.14892C10.675 5.21714 10.675 5.32979 10.675 5.5535V9.04397C10.675 9.67515 10.4565 10.2805 10.0675 10.7268C9.67851 11.1731 9.15094 11.4238 8.60084 11.4238C8.05073 11.4238 7.52316 11.1731 7.13418 10.7268C6.7452 10.2805 6.52667 9.67515 6.52667 9.04397V5.76293Z" fill="#6B3D3D"/>
<path d="M8.46319 5.07752V10.1546M18.4192 5.07752V10.1546" stroke="#6B3D3D" stroke-linecap="round"/>
<path d="M7.46768 15.2293C8.01754 15.2293 8.46328 14.7746 8.46328 14.2138C8.46328 13.653 8.01754 13.1984 7.46768 13.1984C6.91783 13.1984 6.47208 13.653 6.47208 14.2138C6.47208 14.7746 6.91783 15.2293 7.46768 15.2293Z" fill="white"/>
<path d="M11.4499 15.2293C11.9998 15.2293 12.4455 14.7746 12.4455 14.2138C12.4455 13.653 11.9998 13.1984 11.4499 13.1984C10.9 13.1984 10.4543 13.653 10.4543 14.2138C10.4543 14.7746 10.9 15.2293 11.4499 15.2293Z" fill="white"/>
<path d="M15.9289 15.2293C16.4788 15.2293 16.9245 14.7746 16.9245 14.2138C16.9245 13.653 16.4788 13.1984 15.9289 13.1984C15.3791 13.1984 14.9333 13.653 14.9333 14.2138C14.9333 14.7746 15.3791 15.2293 15.9289 15.2293Z" fill="white"/>
<path d="M19.9111 15.2293C20.461 15.2293 20.9067 14.7746 20.9067 14.2138C20.9067 13.653 20.461 13.1984 19.9111 13.1984C19.3613 13.1984 18.9155 13.653 18.9155 14.2138C18.9155 14.7746 19.3613 15.2293 19.9111 15.2293Z" fill="white"/>
<path d="M7.46768 20.8153C8.01754 20.8153 8.46328 20.3607 8.46328 19.7999C8.46328 19.2391 8.01754 18.7845 7.46768 18.7845C6.91783 18.7845 6.47208 19.2391 6.47208 19.7999C6.47208 20.3607 6.91783 20.8153 7.46768 20.8153Z" fill="white"/>
<path d="M11.4499 20.8153C11.9998 20.8153 12.4455 20.3607 12.4455 19.7999C12.4455 19.2391 11.9998 18.7845 11.4499 18.7845C10.9 18.7845 10.4543 19.2391 10.4543 19.7999C10.4543 20.3607 10.9 20.8153 11.4499 20.8153Z" fill="white"/>
<path d="M15.9289 20.8153C16.4788 20.8153 16.9245 20.3607 16.9245 19.7999C16.9245 19.2391 16.4788 18.7845 15.9289 18.7845C15.3791 18.7845 14.9333 19.2391 14.9333 19.7999C14.9333 20.3607 15.3791 20.8153 15.9289 20.8153Z" fill="white"/>
<path d="M19.9111 20.8153C20.461 20.8153 20.9067 20.3607 20.9067 19.7999C20.9067 19.2391 20.461 18.7845 19.9111 18.7845C19.3613 18.7845 18.9155 19.2391 18.9155 19.7999C18.9155 20.3607 19.3613 20.8153 19.9111 20.8153Z" fill="white"/>
<path d="M7.46768 25.3843C8.01754 25.3843 8.46328 24.9297 8.46328 24.3689C8.46328 23.8081 8.01754 23.3535 7.46768 23.3535C6.91783 23.3535 6.47208 23.8081 6.47208 24.3689C6.47208 24.9297 6.91783 25.3843 7.46768 25.3843Z" fill="white"/>
<path d="M11.4499 25.3843C11.9998 25.3843 12.4455 24.9297 12.4455 24.3689C12.4455 23.8081 11.9998 23.3535 11.4499 23.3535C10.9 23.3535 10.4543 23.8081 10.4543 24.3689C10.4543 24.9297 10.9 25.3843 11.4499 25.3843Z" fill="white"/>
<path d="M15.9289 25.3843C16.4788 25.3843 16.9245 24.9297 16.9245 24.3689C16.9245 23.8081 16.4788 23.3535 15.9289 23.3535C15.3791 23.3535 14.9333 23.8081 14.9333 24.3689C14.9333 24.9297 15.3791 25.3843 15.9289 25.3843Z" fill="white"/>
<path d="M19.9111 25.3843C20.461 25.3843 20.9067 24.9297 20.9067 24.3689C20.9067 23.8081 20.461 23.3535 19.9111 23.3535C19.3613 23.3535 18.9155 23.8081 18.9155 24.3689C18.9155 24.9297 19.3613 25.3843 19.9111 25.3843Z" fill="white"/>
</svg>
