<svg width="50" height="50" viewBox="0 0 50 50" fill="none" xmlns="http://www.w3.org/2000/svg">
<circle cx="25" cy="25" r="25" fill="#D9D9D9"/>
<path d="M17.2083 31.7917H18.6927L28.875 21.6094L27.3906 20.125L17.2083 30.3073V31.7917ZM15.125 33.875V29.4479L28.875 15.724C29.0833 15.533 29.3135 15.3854 29.5656 15.2813C29.8177 15.1771 30.0823 15.125 30.3594 15.125C30.6365 15.125 30.9056 15.1771 31.1667 15.2813C31.4278 15.3854 31.6535 15.5417 31.8437 15.75L33.276 17.2083C33.4844 17.3993 33.6365 17.625 33.7323 17.8854C33.8281 18.1458 33.8757 18.4062 33.875 18.6667C33.875 18.9444 33.8274 19.2094 33.7323 19.4615C33.6372 19.7135 33.4851 19.9434 33.276 20.151L19.5521 33.875H15.125ZM28.1198 20.8802L27.3906 20.125L28.875 21.6094L28.1198 20.8802Z" fill="#A7A7A7"/>
</svg>
