<svg width="50" height="50" viewBox="0 0 50 50" fill="none" xmlns="http://www.w3.org/2000/svg">
<path d="M8.33398 37.4974C8.33398 35.2873 9.21196 33.1676 10.7748 31.6048C12.3376 30.042 14.4572 29.1641 16.6673 29.1641H33.334C35.5441 29.1641 37.6637 30.042 39.2265 31.6048C40.7893 33.1676 41.6673 35.2873 41.6673 37.4974C41.6673 38.6025 41.2283 39.6623 40.4469 40.4437C39.6655 41.2251 38.6057 41.6641 37.5006 41.6641H12.5007C11.3956 41.6641 10.3358 41.2251 9.55437 40.4437C8.77297 39.6623 8.33398 38.6025 8.33398 37.4974Z" stroke="#A70000" stroke-width="2" stroke-linejoin="round"/>
<path d="M25 20.832C28.4518 20.832 31.25 18.0338 31.25 14.582C31.25 11.1303 28.4518 8.33203 25 8.33203C21.5482 8.33203 18.75 11.1303 18.75 14.582C18.75 18.0338 21.5482 20.832 25 20.832Z" stroke="#A70000" stroke-width="2"/>
</svg>
