<svg width="35" height="35" viewBox="0 0 35 35" fill="none" xmlns="http://www.w3.org/2000/svg">
<path d="M5.83333 4.375H29.1667C29.5534 4.375 29.9244 4.52865 30.1979 4.80214C30.4714 5.07563 30.625 5.44656 30.625 5.83333V8.14625C30.6249 8.53299 30.4712 8.90386 30.1977 9.17729L20.844 18.531C20.5704 18.8045 20.4167 19.1753 20.4167 19.5621V28.7569C20.4167 28.9785 20.3661 29.1973 20.2689 29.3965C20.1716 29.5957 20.0303 29.7701 19.8555 29.9065C19.6808 30.0429 19.4772 30.1376 19.2603 30.1836C19.0435 30.2295 18.819 30.2253 18.604 30.1715L15.6873 29.4423C15.3719 29.3633 15.092 29.1812 14.892 28.9249C14.692 28.6686 14.5833 28.3528 14.5833 28.0277V19.5621C14.5833 19.1753 14.4296 18.8045 14.156 18.531L4.80229 9.17729C4.52878 8.90386 4.37508 8.53299 4.375 8.14625V5.83333C4.375 5.44656 4.52865 5.07563 4.80214 4.80214C5.07563 4.52865 5.44656 4.375 5.83333 4.375Z" stroke="#6B3D3D" stroke-width="1.5" stroke-linecap="round" stroke-linejoin="round"/>
</svg>
