<svg width="35" height="35" viewBox="0 0 35 35" fill="none" xmlns="http://www.w3.org/2000/svg">
<path d="M23.4304 13.1181C23.5349 13.0172 23.6183 12.8966 23.6757 12.7632C23.7331 12.6297 23.7633 12.4862 23.7647 12.341C23.766 12.1958 23.7384 12.0517 23.6835 11.9173C23.6285 11.7829 23.5474 11.6607 23.4447 11.558C23.3421 11.4552 23.22 11.3739 23.0856 11.3189C22.9512 11.2638 22.8072 11.2361 22.662 11.2373C22.5167 11.2385 22.3732 11.2686 22.2397 11.3258C22.1063 11.3831 21.9855 11.4664 21.8846 11.5708L17.5009 15.9531L13.1186 11.5708C13.0184 11.4633 12.8977 11.3771 12.7635 11.3173C12.6293 11.2576 12.4845 11.2254 12.3377 11.2228C12.1908 11.2202 12.0449 11.2473 11.9087 11.3023C11.7725 11.3573 11.6488 11.4391 11.545 11.543C11.4411 11.6469 11.3592 11.7706 11.3042 11.9068C11.2492 12.043 11.2222 12.1888 11.2248 12.3357C11.2274 12.4826 11.2595 12.6274 11.3193 12.7616C11.3791 12.8957 11.4653 13.0165 11.5727 13.1166L15.9521 17.5004L11.5698 21.8826C11.3766 22.09 11.2714 22.3642 11.2764 22.6476C11.2814 22.9309 11.3962 23.2013 11.5966 23.4017C11.797 23.6021 12.0674 23.7169 12.3507 23.7219C12.6341 23.7269 12.9083 23.6217 13.1156 23.4285L17.5009 19.0462L21.8831 23.4299C22.0905 23.6231 22.3647 23.7283 22.6481 23.7233C22.9314 23.7183 23.2018 23.6035 23.4022 23.4031C23.6026 23.2027 23.7174 22.9324 23.7224 22.649C23.7274 22.3657 23.6222 22.0914 23.429 21.8841L19.0496 17.5004L23.4304 13.1181Z" fill="#949494"/>
</svg>
