<svg width="35" height="35" viewBox="0 0 35 35" fill="none" xmlns="http://www.w3.org/2000/svg">
<path d="M30.6191 7.42817H23.6773V6.18468C23.6718 5.30419 23.2997 4.46108 22.6413 3.83741C22.3133 3.52671 21.9234 3.28034 21.4941 3.11248C21.0648 2.94463 20.6045 2.85861 20.1399 2.85938H15.3147C14.85 2.85861 14.3898 2.94463 13.9605 3.11248C13.5312 3.28034 13.1413 3.52671 12.8133 3.83741C12.1603 4.46334 11.7936 5.30618 11.792 6.18468V7.42817H4.85032C4.55591 7.42817 4.27355 7.53857 4.06537 7.73509C3.85719 7.93161 3.74023 8.19814 3.74023 8.47606C3.74023 8.75397 3.85719 9.02051 4.06537 9.21703C4.27355 9.41354 4.55591 9.52395 4.85032 9.52395H6.95208V25.9548C6.94604 26.5916 7.07373 27.2232 7.32778 27.8132C7.58183 28.4031 7.95719 28.9397 8.43219 29.3919C9.40067 30.2876 10.7026 30.7893 12.0585 30.7891H23.3369C24.6928 30.7893 25.9947 30.2876 26.9632 29.3919C27.4382 28.9397 27.8135 28.4031 28.0676 27.8132C28.3216 27.2232 28.4493 26.5916 28.4433 25.9548V9.52395H30.5599C30.8543 9.52395 31.1366 9.41354 31.3448 9.21703C31.553 9.02051 31.6699 8.75397 31.6699 8.47606C31.6699 8.19814 31.553 7.93161 31.3448 7.73509C31.1366 7.53857 30.8543 7.42817 30.5599 7.42817H30.6191ZM14.0418 6.18468C14.0419 6.02341 14.0759 5.86376 14.142 5.71504C14.2081 5.56632 14.3048 5.4315 14.4266 5.31842C14.6713 5.08998 15.0002 4.9598 15.3443 4.95516H20.1695C20.3427 4.95414 20.5144 4.98574 20.6745 5.04812C20.8346 5.11049 20.9799 5.20239 21.1019 5.31842C21.3439 5.54941 21.4819 5.85984 21.4868 6.18468V7.42817H14.0862L14.0418 6.18468ZM16.0104 23.8032C16.0104 24.1737 15.8544 24.5291 15.5768 24.7911C15.2993 25.0531 14.9228 25.2003 14.5302 25.2003C14.1377 25.2003 13.7612 25.0531 13.4836 24.7911C13.2061 24.5291 13.0501 24.1737 13.0501 23.8032V16.2165C13.0501 15.8459 13.2061 15.4905 13.4836 15.2285C13.7612 14.9665 14.1377 14.8193 14.5302 14.8193C14.9228 14.8193 15.2993 14.9665 15.5768 15.2285C15.8544 15.4905 16.0104 15.8459 16.0104 16.2165V23.8032ZM22.4636 23.8032C22.4636 24.1737 22.3077 24.5291 22.0301 24.7911C21.7526 25.0531 21.3761 25.2003 20.9835 25.2003C20.591 25.2003 20.2145 25.0531 19.9369 24.7911C19.6594 24.5291 19.5034 24.1737 19.5034 23.8032V16.2165C19.5034 15.8459 19.6594 15.4905 19.9369 15.2285C20.2145 14.9665 20.591 14.8193 20.9835 14.8193C21.3761 14.8193 21.7526 14.9665 22.0301 15.2285C22.3077 15.4905 22.4636 15.8459 22.4636 16.2165V23.8032Z" fill="#6B3D3D"/>
</svg>
