<svg width="25" height="25" viewBox="0 0 25 25" fill="none" xmlns="http://www.w3.org/2000/svg">
<path fill-rule="evenodd" clip-rule="evenodd" d="M0 5.00064C0 3.2507 0 2.37573 0.340614 1.70908C0.641269 1.12251 1.11858 0.645198 1.70515 0.344543C2.37388 0.003929 3.24677 0.00392896 4.99671 0.00392896H5.41336C7.16331 0.00392896 8.03828 0.003929 8.70492 0.344543C9.29149 0.645198 9.7688 1.12251 10.0695 1.70908C10.4101 2.37781 10.4101 3.2507 10.4101 5.00064V5.41729C10.4101 7.16723 10.4101 8.04221 10.0695 8.70885C9.7688 9.29542 9.29149 9.77273 8.70492 10.0734C8.03619 10.414 7.16331 10.414 5.41336 10.414H4.99671C3.24677 10.414 2.3718 10.414 1.70515 10.0734C1.11858 9.77273 0.641269 9.29542 0.340614 8.70885C0 8.04012 0 7.16723 0 5.41729V5.00064ZM4.99984 1.04244H5.41649C6.30917 1.04244 6.91644 1.04244 7.38517 1.08202C7.84141 1.11848 8.07578 1.18618 8.23827 1.26951C8.62992 1.46951 8.94866 1.78825 9.14866 2.1799C9.23199 2.34239 9.29969 2.57572 9.33615 3.033C9.37469 3.50173 9.37573 4.10588 9.37573 5.00168V5.41833C9.37469 6.31101 9.37469 6.91724 9.33615 7.38598C9.29865 7.84221 9.23095 8.07658 9.14866 8.23907C8.94893 8.63105 8.63024 8.94973 8.23827 9.14946C8.07578 9.23279 7.84141 9.3005 7.38517 9.33696C6.91644 9.3755 6.31229 9.37549 5.41649 9.37549H4.99984C4.10716 9.37549 3.49988 9.3755 3.03115 9.33696C2.57492 9.29946 2.34055 9.23175 2.17805 9.14946C1.78608 8.94973 1.46739 8.63105 1.26767 8.23907C1.18434 8.07658 1.11663 7.84221 1.08017 7.38494C1.04163 6.91724 1.04059 6.3131 1.04059 5.41729V5.00064C1.04059 4.109 1.04163 3.50069 1.08017 3.03195C1.11767 2.57676 1.18538 2.34239 1.26767 2.1799C1.46766 1.78825 1.7864 1.46951 2.17805 1.26951C2.34055 1.18618 2.57492 1.11848 3.03115 1.08202C3.49988 1.04244 4.10403 1.04244 4.99984 1.04244ZM0 19.5835C0 17.8335 0 16.9586 0.340614 16.2919C0.641269 15.7054 1.11858 15.2281 1.70515 14.9274C2.37388 14.5868 3.24677 14.5868 4.99671 14.5868H5.41336C7.16331 14.5868 8.03828 14.5868 8.70492 14.9274C9.2924 15.2274 9.76739 15.7045 10.0695 16.2919C10.4101 16.9607 10.4101 17.8335 10.4101 19.5835V20.0001C10.4101 21.7501 10.4101 22.6251 10.0695 23.2917C9.7688 23.8783 9.29149 24.3556 8.70492 24.6562C8.03619 24.9969 7.16331 24.9969 5.41336 24.9969H4.99671C3.24677 24.9969 2.3718 24.9969 1.70515 24.6562C1.11774 24.3567 0.640109 23.8791 0.340614 23.2917C0 22.623 0 21.7501 0 20.0001V19.5835ZM4.99984 15.6253H5.41649C6.30917 15.6253 6.91644 15.6253 7.38517 15.6649C7.84141 15.7013 8.07578 15.769 8.23827 15.8524C8.62992 16.0524 8.94866 16.3711 9.14866 16.7628C9.23199 16.9252 9.29969 17.1586 9.33615 17.6158C9.37469 18.0846 9.37573 18.6887 9.37573 19.5845V20.0012C9.37573 20.8939 9.37469 21.5011 9.33615 21.9699C9.29865 22.4261 9.23095 22.6605 9.14866 22.823C8.94893 23.2149 8.63024 23.5336 8.23827 23.7334C8.07578 23.8167 7.84141 23.8844 7.38517 23.9209C6.91644 23.9583 6.31229 23.9583 5.41649 23.9583H4.99984C4.10716 23.9583 3.49988 23.9583 3.03115 23.9198C2.57492 23.8823 2.34055 23.8146 2.17805 23.7323C1.78608 23.5326 1.46739 23.2139 1.26767 22.8219C1.18434 22.6594 1.11663 22.4251 1.08017 21.9678C1.04163 21.5001 1.04059 20.8959 1.04059 20.0001V19.5835C1.04059 18.6919 1.04163 18.0835 1.08017 17.6148C1.11767 17.1596 1.18538 16.9252 1.26767 16.7628C1.46766 16.3711 1.7864 16.0524 2.17805 15.8524C2.34055 15.769 2.57492 15.7013 3.03115 15.6649C3.49988 15.6253 4.10403 15.6253 4.99984 15.6253ZM14.8953 16.2503C14.5547 16.919 14.5547 17.7919 14.5547 19.5418V19.9585C14.5547 21.7084 14.5547 22.5834 14.8953 23.25C15.1953 23.8375 15.6724 24.3125 16.2599 24.6146C16.9286 24.9552 17.8015 24.9552 19.5514 24.9552H19.9681C21.718 24.9552 22.593 24.9552 23.2597 24.6146C23.8471 24.3151 24.3247 23.8375 24.6242 23.25C24.9648 22.5813 24.9648 21.7084 24.9648 19.9585V19.5418C24.9648 17.7919 24.9648 16.9169 24.6242 16.2503C24.3247 15.6629 23.8471 15.1852 23.2597 14.8857C22.5909 14.5451 21.718 14.5451 19.9681 14.5451H19.5514C17.8015 14.5451 16.9265 14.5451 16.2599 14.8857C15.6725 15.1852 15.1948 15.6629 14.8953 16.2503ZM19.9681 15.5857H19.5514C18.6588 15.5857 18.0515 15.5857 17.5828 15.6253C17.1265 15.6617 16.8922 15.7295 16.7297 15.8128C16.3377 16.0125 16.019 16.3312 15.8193 16.7232C15.7359 16.8857 15.6682 17.119 15.6318 17.5763C15.5932 18.045 15.5922 18.6491 15.5922 19.545V19.9616C15.5922 20.8543 15.5932 21.4616 15.6318 21.9303C15.6693 22.3865 15.737 22.6209 15.8193 22.7834C16.0193 23.175 16.338 23.4938 16.7297 23.6938C16.8922 23.7771 17.1265 23.8448 17.5828 23.8813C18.0515 23.9188 18.6556 23.9198 19.5514 23.9198H19.9681C20.8608 23.9198 21.468 23.9198 21.9368 23.8813C22.393 23.8438 22.6274 23.7761 22.7899 23.6938C23.1815 23.4938 23.5003 23.175 23.7003 22.7834C23.7836 22.6209 23.8513 22.3865 23.8878 21.9292C23.9263 21.4605 23.9273 20.8564 23.9273 19.9606V19.5439C23.9273 18.6523 23.9263 18.044 23.8878 17.5752C23.8503 17.12 23.7826 16.8857 23.7003 16.7232C23.5005 16.3312 23.1818 16.0125 22.7899 15.8128C22.6274 15.7295 22.393 15.6617 21.9368 15.6253C21.468 15.5867 20.8639 15.5857 19.9681 15.5857ZM14.5829 5.00064C14.5829 3.2507 14.5829 2.37573 14.9235 1.70908C15.223 1.12167 15.7006 0.644038 16.288 0.344543C16.9567 0.003929 17.8296 0.00392896 19.5796 0.00392896H19.9962C21.7462 0.00392896 22.6211 0.003929 23.2878 0.344543C23.8743 0.645198 24.3517 1.12251 24.6523 1.70908C24.9929 2.37781 24.9929 3.2507 24.9929 5.00064V5.41729C24.9929 7.16723 24.9929 8.04221 24.6523 8.70885C24.3528 9.29627 23.8752 9.77389 23.2878 10.0734C22.619 10.414 21.7462 10.414 19.9962 10.414H19.5796C17.8296 10.414 16.9546 10.414 16.288 10.0734C15.7014 9.77273 15.2241 9.29542 14.9235 8.70885C14.5829 8.04012 14.5829 7.16723 14.5829 5.41729V5.00064ZM19.5827 1.04244H19.9993C20.892 1.04244 21.4993 1.04244 21.968 1.08202C22.4243 1.11848 22.6586 1.18618 22.8211 1.26951C23.2128 1.46951 23.5315 1.78825 23.7315 2.1799C23.8148 2.34239 23.8825 2.57572 23.919 3.033C23.9575 3.50173 23.9586 4.10588 23.9586 5.00168V5.41833C23.9586 6.31101 23.9575 6.91829 23.919 7.38702C23.8815 7.84325 23.8138 8.07762 23.7315 8.24012C23.5318 8.63209 23.2131 8.95078 22.8211 9.1505C22.6586 9.23383 22.4243 9.30154 21.968 9.338C21.4993 9.37549 20.8951 9.37549 19.9993 9.37549H19.5827C18.69 9.37549 18.0827 9.3755 17.614 9.33696C17.1578 9.29946 16.9234 9.23175 16.7609 9.14946C16.3689 8.94973 16.0502 8.63105 15.8505 8.23907C15.7672 8.07658 15.6995 7.84221 15.663 7.38494C15.6245 6.9162 15.6234 6.31205 15.6234 5.41625V4.9996C15.6234 4.10796 15.6245 3.49965 15.663 3.03091C15.7005 2.57572 15.7682 2.34135 15.8505 2.17886C16.0505 1.7872 16.3693 1.46846 16.7609 1.26847C16.9234 1.18514 17.1578 1.11743 17.614 1.08098C18.0827 1.04244 18.6869 1.04244 19.5827 1.04244Z" fill="#6B3D3D"/>
</svg>
