<svg width="35" height="35" viewBox="0 0 35 35" fill="none" xmlns="http://www.w3.org/2000/svg">
<path d="M25.1562 7.65625H9.84375C4.41602 7.65625 0 12.0723 0 17.5C0 22.9277 4.41602 27.3438 9.84375 27.3438H25.1562C30.584 27.3438 35 22.9277 35 17.5C35 12.0723 30.584 7.65625 25.1562 7.65625ZM25.1562 25.1562C23.642 25.1562 22.1617 24.7072 20.9027 23.8659C19.6436 23.0247 18.6623 21.8289 18.0828 20.4299C17.5033 19.0309 17.3517 17.4915 17.6471 16.0063C17.9425 14.5212 18.6717 13.157 19.7425 12.0862C20.8132 11.0155 22.1774 10.2863 23.6626 9.99086C25.1478 9.69545 26.6872 9.84706 28.0862 10.4265C29.4852 11.006 30.6809 11.9874 31.5222 13.2464C32.3635 14.5055 32.8125 15.9857 32.8125 17.5C32.8103 19.5299 32.003 21.476 30.5676 22.9114C29.1323 24.3467 27.1861 25.1541 25.1562 25.1562Z" fill="#6B3D3D"/>
</svg>
