<svg width="28" height="32" viewBox="0 0 28 32" fill="none" xmlns="http://www.w3.org/2000/svg">
<path fill-rule="evenodd" clip-rule="evenodd" d="M6.69865 5.58798C6.69865 5.34953 6.69865 5.22953 6.62769 5.1603C6.5539 5.09107 6.44604 5.10645 6.23032 5.13722C4.64085 5.35722 3.53105 5.80798 2.68522 6.72643C1.02194 8.52793 1.02194 11.4294 1.02194 17.2309C1.02194 23.0323 1.02194 25.9338 2.68522 27.7353C4.3485 29.5368 7.02364 29.5383 12.3754 29.5383H15.2137C20.5654 29.5383 23.242 29.5383 24.9039 27.7353C26.5657 25.9323 26.5671 23.0323 26.5671 17.2309C26.5671 11.4294 26.5671 8.52793 24.9039 6.72643C24.058 5.80798 22.9482 5.35722 21.3573 5.13722C21.143 5.10645 21.0352 5.09107 20.9628 5.1603C20.8904 5.22953 20.8904 5.34953 20.8904 5.58798V8.76947C20.8904 9.3815 20.6661 9.96846 20.2669 10.4012C19.8677 10.834 19.3262 11.0771 18.7617 11.0771C18.1971 11.0771 17.6556 10.834 17.2564 10.4012C16.8572 9.96846 16.6329 9.3815 16.6329 8.76947V5.38491C16.6329 5.16799 16.6329 5.05876 16.5704 4.99261C16.508 4.92646 16.4087 4.92338 16.2086 4.92338H11.3819C11.1804 4.92338 11.0811 4.92338 11.0186 4.99261C10.9562 5.05876 10.9562 5.16799 10.9562 5.38491V8.76947C10.9562 9.3815 10.7319 9.96846 10.3327 10.4012C9.93346 10.834 9.392 11.0771 8.82742 11.0771C8.26283 11.0771 7.72137 10.834 7.32215 10.4012C6.92293 9.96846 6.69865 9.3815 6.69865 8.76947V5.58798Z" fill="#6B3D3D"/>
<path d="M8.68555 4.92338V9.84637M18.9036 4.92338V9.84637" stroke="#6B3D3D" stroke-linecap="round"/>
<path d="M7.66346 14.77C8.22779 14.77 8.68527 14.3292 8.68527 13.7854C8.68527 13.2416 8.22779 12.8008 7.66346 12.8008C7.09914 12.8008 6.64166 13.2416 6.64166 13.7854C6.64166 14.3292 7.09914 14.77 7.66346 14.77Z" fill="white"/>
<path d="M11.7512 14.77C12.3156 14.77 12.773 14.3292 12.773 13.7854C12.773 13.2416 12.3156 12.8008 11.7512 12.8008C11.1869 12.8008 10.7294 13.2416 10.7294 13.7854C10.7294 14.3292 11.1869 14.77 11.7512 14.77Z" fill="white"/>
<path d="M16.349 14.77C16.9133 14.77 17.3708 14.3292 17.3708 13.7854C17.3708 13.2416 16.9133 12.8008 16.349 12.8008C15.7847 12.8008 15.3272 13.2416 15.3272 13.7854C15.3272 14.3292 15.7847 14.77 16.349 14.77Z" fill="white"/>
<path d="M20.4368 14.77C21.0011 14.77 21.4586 14.3292 21.4586 13.7854C21.4586 13.2416 21.0011 12.8008 20.4368 12.8008C19.8725 12.8008 19.415 13.2416 19.415 13.7854C19.415 14.3292 19.8725 14.77 20.4368 14.77Z" fill="white"/>
<path d="M7.66346 20.1837C8.22779 20.1837 8.68527 19.7429 8.68527 19.1991C8.68527 18.6554 8.22779 18.2145 7.66346 18.2145C7.09914 18.2145 6.64166 18.6554 6.64166 19.1991C6.64166 19.7429 7.09914 20.1837 7.66346 20.1837Z" fill="white"/>
<path d="M11.7512 20.1837C12.3156 20.1837 12.773 19.7429 12.773 19.1991C12.773 18.6554 12.3156 18.2145 11.7512 18.2145C11.1869 18.2145 10.7294 18.6554 10.7294 19.1991C10.7294 19.7429 11.1869 20.1837 11.7512 20.1837Z" fill="white"/>
<path d="M16.349 20.1837C16.9133 20.1837 17.3708 19.7429 17.3708 19.1991C17.3708 18.6554 16.9133 18.2145 16.349 18.2145C15.7847 18.2145 15.3272 18.6554 15.3272 19.1991C15.3272 19.7429 15.7847 20.1837 16.349 20.1837Z" fill="white"/>
<path d="M20.4368 20.1837C21.0011 20.1837 21.4586 19.7429 21.4586 19.1991C21.4586 18.6554 21.0011 18.2145 20.4368 18.2145C19.8725 18.2145 19.415 18.6554 19.415 19.1991C19.415 19.7429 19.8725 20.1837 20.4368 20.1837Z" fill="white"/>
<path d="M7.66346 24.6167C8.22779 24.6167 8.68527 24.1759 8.68527 23.6321C8.68527 23.0884 8.22779 22.6475 7.66346 22.6475C7.09914 22.6475 6.64166 23.0884 6.64166 23.6321C6.64166 24.1759 7.09914 24.6167 7.66346 24.6167Z" fill="white"/>
<path d="M11.7512 24.6167C12.3156 24.6167 12.773 24.1759 12.773 23.6321C12.773 23.0884 12.3156 22.6475 11.7512 22.6475C11.1869 22.6475 10.7294 23.0884 10.7294 23.6321C10.7294 24.1759 11.1869 24.6167 11.7512 24.6167Z" fill="white"/>
<path d="M16.349 24.6167C16.9133 24.6167 17.3708 24.1759 17.3708 23.6321C17.3708 23.0884 16.9133 22.6475 16.349 22.6475C15.7847 22.6475 15.3272 23.0884 15.3272 23.6321C15.3272 24.1759 15.7847 24.6167 16.349 24.6167Z" fill="white"/>
<path d="M20.4368 24.6167C21.0011 24.6167 21.4586 24.1759 21.4586 23.6321C21.4586 23.0884 21.0011 22.6475 20.4368 22.6475C19.8725 22.6475 19.415 23.0884 19.415 23.6321C19.415 24.1759 19.8725 24.6167 20.4368 24.6167Z" fill="white"/>
</svg>
